<svg xmlns="http://www.w3.org/2000/svg" xmlns:svg="http://www.w3.org/2000/svg" id="svg2" width="732" height="1740.34" version="1.1"><defs id="defs4"><marker id="DiamondM" orient="auto" refX="0" refY="0" style="overflow:visible"><path id="path3971" d="M 0,-7.0710768 -7.0710894,0 0,7.0710589 7.0710462,0 0,-7.0710768 z" transform="scale(0.4,0.4)" style="fill-rule:evenodd;stroke:#000;stroke-width:1pt"/></marker><marker id="DotM" orient="auto" refX="0" refY="0" style="overflow:visible"><path id="path3953" d="m -2.5,-1 c 0,2.76 -2.24,5 -5,5 -2.76,0 -5,-2.24 -5,-5 0,-2.76 2.24,-5 5,-5 2.76,0 5,2.24 5,5 z" transform="matrix(0.4,0,0,0.4,2.96,0.4)" style="fill-rule:evenodd;stroke:#000;stroke-width:1pt"/></marker><marker id="TriangleOutM" orient="auto" refX="0" refY="0" style="overflow:visible"><path id="path4034" d="m 5.77,0 -8.65,5 0,-10 8.65,5 z" transform="scale(0.4,0.4)" style="fill-rule:evenodd;stroke:#000;stroke-width:1pt"/></marker><marker id="TriangleOutS" orient="auto" refX="0" refY="0" style="overflow:visible"><path id="path4037" d="m 5.77,0 -8.65,5 0,-10 8.65,5 z" transform="scale(0.2,0.2)" style="fill-rule:evenodd;stroke:#000;stroke-width:1pt"/></marker><marker id="DiamondS" orient="auto" refX="0" refY="0" style="overflow:visible"><path id="path3878" d="M 0,-7.0710768 -7.0710894,0 0,7.0710589 7.0710462,0 0,-7.0710768 z" transform="scale(0.2,0.2)" style="fill-rule:evenodd;stroke:#000;stroke-width:1pt"/></marker><marker id="DotS" orient="auto" refX="0" refY="0" style="overflow:visible"><path id="path3860" d="m -2.5,-1 c 0,2.76 -2.24,5 -5,5 -2.76,0 -5,-2.24 -5,-5 0,-2.76 2.24,-5 5,-5 2.76,0 5,2.24 5,5 z" transform="matrix(0.2,0,0,0.2,1.48,0.2)" style="fill-rule:evenodd;stroke:#000;stroke-width:1pt"/></marker><marker id="DotL" orient="auto" refX="0" refY="0" style="overflow:visible"><path id="path3854" d="m -2.5,-1 c 0,2.76 -2.24,5 -5,5 -2.76,0 -5,-2.24 -5,-5 0,-2.76 2.24,-5 5,-5 2.76,0 5,2.24 5,5 z" transform="matrix(0.8,0,0,0.8,5.92,0.8)" style="fill-rule:evenodd;stroke:#000;stroke-width:1pt"/></marker><marker id="Arrow2Lend" orient="auto" refX="0" refY="0" style="overflow:visible"><path id="path3814" d="M 8.7185878,4.0337352 -2.2072895,0.01601326 8.7185884,-4.0017078 c -1.7454984,2.3720609 -1.7354408,5.6174519 -6e-7,8.035443 z" transform="matrix(-1.1,0,0,-1.1,-1.1,0)" style="fill-rule:evenodd;stroke-width:.625;stroke-linejoin:round"/></marker><marker id="Arrow1Lend" orient="auto" refX="0" refY="0" style="overflow:visible"><path id="path3796" d="M 0,0 5,-5 -12.5,0 5,5 0,0 z" transform="matrix(-0.8,0,0,-0.8,-10,0)" style="fill-rule:evenodd;stroke:#000;stroke-width:1pt"/></marker><marker id="Arrow1Lend-7" orient="auto" refX="0" refY="0" style="overflow:visible"><path id="path3796-8" d="M 0,0 5,-5 -12.5,0 5,5 0,0 z" transform="matrix(-0.8,0,0,-0.8,-10,0)" style="fill-rule:evenodd;stroke:#000;stroke-width:1pt"/></marker><marker id="Arrow1Lend-5" orient="auto" refX="0" refY="0" style="overflow:visible"><path id="path3796-0" d="M 0,0 5,-5 -12.5,0 5,5 0,0 z" transform="matrix(-0.8,0,0,-0.8,-10,0)" style="fill-rule:evenodd;stroke:#000;stroke-width:1pt"/></marker><marker id="Arrow1Lend-6" orient="auto" refX="0" refY="0" style="overflow:visible"><path id="path3796-7" d="M 0,0 5,-5 -12.5,0 5,5 0,0 z" transform="matrix(-0.8,0,0,-0.8,-10,0)" style="fill-rule:evenodd;stroke:#000;stroke-width:1pt"/></marker><marker id="Arrow1Lend-77" orient="auto" refX="0" refY="0" style="overflow:visible"><path id="path3796-4" d="M 0,0 5,-5 -12.5,0 5,5 0,0 z" transform="matrix(-0.8,0,0,-0.8,-10,0)" style="fill-rule:evenodd;stroke:#000;stroke-width:1pt"/></marker><marker id="Arrow1Lend-9" orient="auto" refX="0" refY="0" style="overflow:visible"><path id="path3796-2" d="M 0,0 5,-5 -12.5,0 5,5 0,0 z" transform="matrix(-0.8,0,0,-0.8,-10,0)" style="fill-rule:evenodd;stroke:#000;stroke-width:1pt"/></marker><marker id="TriangleOutM-7" orient="auto" refX="0" refY="0" style="overflow:visible"><path id="path4034-4" d="m 5.77,0 -8.65,5 0,-10 8.65,5 z" transform="scale(0.4,0.4)" style="fill-rule:evenodd;stroke:#000;stroke-width:1pt"/></marker><marker id="TriangleOutM-6" orient="auto" refX="0" refY="0" style="overflow:visible"><path id="path4034-47" d="m 5.77,0 -8.65,5 0,-10 8.65,5 z" transform="scale(0.4,0.4)" style="fill-rule:evenodd;stroke:#000;stroke-width:1pt"/></marker><marker id="DiamondS-4" orient="auto" refX="0" refY="0" style="overflow:visible"><path id="path3878-1" d="M 0,-7.0710768 -7.0710894,0 0,7.0710589 7.0710462,0 0,-7.0710768 z" transform="scale(0.2,0.2)" style="fill-rule:evenodd;stroke:#000;stroke-width:1pt"/></marker><marker id="TriangleOutM-2" orient="auto" refX="0" refY="0" style="overflow:visible"><path id="path4034-7" d="m 5.77,0 -8.65,5 0,-10 8.65,5 z" transform="scale(0.4,0.4)" style="fill-rule:evenodd;stroke:#000;stroke-width:1pt"/></marker><marker id="TriangleOutM-1" orient="auto" refX="0" refY="0" style="overflow:visible"><path id="path4034-8" d="m 5.77,0 -8.65,5 0,-10 8.65,5 z" transform="scale(0.4,0.4)" style="fill-rule:evenodd;stroke:#000;stroke-width:1pt"/></marker><marker id="DotS-7" orient="auto" refX="0" refY="0" style="overflow:visible"><path id="path3860-9" d="m -2.5,-1 c 0,2.76 -2.24,5 -5,5 -2.76,0 -5,-2.24 -5,-5 0,-2.76 2.24,-5 5,-5 2.76,0 5,2.24 5,5 z" transform="matrix(0.2,0,0,0.2,1.48,0.2)" style="fill-rule:evenodd;stroke:#000;stroke-width:1pt"/></marker><marker id="TriangleOutM-0" orient="auto" refX="0" refY="0" style="overflow:visible"><path id="path4034-1" d="m 5.77,0 -8.65,5 0,-10 8.65,5 z" transform="scale(0.4,0.4)" style="fill-rule:evenodd;stroke:#000;stroke-width:1pt"/></marker><marker id="DotS-5" orient="auto" refX="0" refY="0" style="overflow:visible"><path id="path3860-6" d="m -2.5,-1 c 0,2.76 -2.24,5 -5,5 -2.76,0 -5,-2.24 -5,-5 0,-2.76 2.24,-5 5,-5 2.76,0 5,2.24 5,5 z" transform="matrix(0.2,0,0,0.2,1.48,0.2)" style="fill-rule:evenodd;stroke:#000;stroke-width:1pt"/></marker><marker id="DotM7" orient="auto" refX="0" refY="0" style="overflow:visible"><path id="path8709" d="m -2.5,-1 c 0,2.76 -2.24,5 -5,5 -2.76,0 -5,-2.24 -5,-5 0,-2.76 2.24,-5 5,-5 2.76,0 5,2.24 5,5 z" transform="matrix(0.4,0,0,0.4,2.96,0.4)" style="fill:#0a0;fill-rule:evenodd;stroke:#0a0;stroke-width:1pt"/></marker><marker id="TriangleOutM-2n" orient="auto" refX="0" refY="0" style="overflow:visible"><path id="path8712" d="m 5.77,0 -8.65,5 0,-10 8.65,5 z" transform="scale(0.4,0.4)" style="fill:#0a0;fill-rule:evenodd;stroke:#0a0;stroke-width:1pt"/></marker><marker id="TriangleOutM-6b" orient="auto" refX="0" refY="0" style="overflow:visible"><path id="path8989" d="m 5.77,0 -8.65,5 0,-10 8.65,5 z" transform="scale(0.4,0.4)" style="fill:#0a0;fill-rule:evenodd;stroke:#0a0;stroke-width:1pt"/></marker><marker id="TriangleOutMx" orient="auto" refX="0" refY="0" style="overflow:visible"><path id="path8992" d="m 5.77,0 -8.65,5 0,-10 8.65,5 z" transform="scale(0.4,0.4)" style="fill:#0a0;fill-rule:evenodd;stroke:#0a0;stroke-width:1pt"/></marker><marker id="TriangleOutM9" orient="auto" refX="0" refY="0" style="overflow:visible"><path id="path8995" d="m 5.77,0 -8.65,5 0,-10 8.65,5 z" transform="scale(0.4,0.4)" style="fill:#0a0;fill-rule:evenodd;stroke:#0a0;stroke-width:1pt"/></marker><marker id="TriangleOutMe" orient="auto" refX="0" refY="0" style="overflow:visible"><path id="path8998" d="m 5.77,0 -8.65,5 0,-10 8.65,5 z" transform="scale(0.4,0.4)" style="fill:#0a0;fill-rule:evenodd;stroke:#0a0;stroke-width:1pt"/></marker><marker id="TriangleOutMW" orient="auto" refX="0" refY="0" style="overflow:visible"><path id="path9001" d="m 5.77,0 -8.65,5 0,-10 8.65,5 z" transform="scale(0.4,0.4)" style="fill:#0a0;fill-rule:evenodd;stroke:#0a0;stroke-width:1pt"/></marker><marker id="DotSz" orient="auto" refX="0" refY="0" style="overflow:visible"><path id="path9298" d="m -2.5,-1 c 0,2.76 -2.24,5 -5,5 -2.76,0 -5,-2.24 -5,-5 0,-2.76 2.24,-5 5,-5 2.76,0 5,2.24 5,5 z" transform="matrix(0.2,0,0,0.2,1.48,0.2)" style="fill:#c00;fill-rule:evenodd;stroke:#c00;stroke-width:1pt"/></marker><marker id="DotSe" orient="auto" refX="0" refY="0" style="overflow:visible"><path id="path9301" d="m -2.5,-1 c 0,2.76 -2.24,5 -5,5 -2.76,0 -5,-2.24 -5,-5 0,-2.76 2.24,-5 5,-5 2.76,0 5,2.24 5,5 z" transform="matrix(0.2,0,0,0.2,1.48,0.2)" style="fill:#c00;fill-rule:evenodd;stroke:#c00;stroke-width:1pt"/></marker><marker id="DotSu" orient="auto" refX="0" refY="0" style="overflow:visible"><path id="path9304" d="m -2.5,-1 c 0,2.76 -2.24,5 -5,5 -2.76,0 -5,-2.24 -5,-5 0,-2.76 2.24,-5 5,-5 2.76,0 5,2.24 5,5 z" transform="matrix(0.2,0,0,0.2,1.48,0.2)" style="fill:#c00;fill-rule:evenodd;stroke:#c00;stroke-width:1pt"/></marker><marker id="DotMc" orient="auto" refX="0" refY="0" style="overflow:visible"><path id="path10345" d="m -2.5,-1 c 0,2.76 -2.24,5 -5,5 -2.76,0 -5,-2.24 -5,-5 0,-2.76 2.24,-5 5,-5 2.76,0 5,2.24 5,5 z" transform="matrix(0.4,0,0,0.4,2.96,0.4)" style="fill:#c00;fill-rule:evenodd;stroke:#c00;stroke-width:1pt"/></marker><marker id="DotMA" orient="auto" refX="0" refY="0" style="overflow:visible"><path id="path10348" d="m -2.5,-1 c 0,2.76 -2.24,5 -5,5 -2.76,0 -5,-2.24 -5,-5 0,-2.76 2.24,-5 5,-5 2.76,0 5,2.24 5,5 z" transform="matrix(0.4,0,0,0.4,2.96,0.4)" style="fill:#c00;fill-rule:evenodd;stroke:#c00;stroke-width:1pt"/></marker><marker id="DotMf" orient="auto" refX="0" refY="0" style="overflow:visible"><path id="path10351" d="m -2.5,-1 c 0,2.76 -2.24,5 -5,5 -2.76,0 -5,-2.24 -5,-5 0,-2.76 2.24,-5 5,-5 2.76,0 5,2.24 5,5 z" transform="matrix(0.4,0,0,0.4,2.96,0.4)" style="fill:#c00;fill-rule:evenodd;stroke:#c00;stroke-width:1pt"/></marker><marker id="DiamondS-4f" orient="auto" refX="0" refY="0" style="overflow:visible"><path id="path11172" d="M 0,-7.0710768 -7.0710894,0 0,7.0710589 7.0710462,0 0,-7.0710768 z" transform="scale(0.2,0.2)" style="fill:silver;fill-rule:evenodd;stroke:silver;stroke-width:1pt"/></marker><marker id="DiamondSO" orient="auto" refX="0" refY="0" style="overflow:visible"><path id="path11175" d="M 0,-7.0710768 -7.0710894,0 0,7.0710589 7.0710462,0 0,-7.0710768 z" transform="scale(0.2,0.2)" style="fill:silver;fill-rule:evenodd;stroke:silver;stroke-width:1pt"/></marker><marker id="DiamondSP" orient="auto" refX="0" refY="0" style="overflow:visible"><path id="path11178" d="M 0,-7.0710768 -7.0710894,0 0,7.0710589 7.0710462,0 0,-7.0710768 z" transform="scale(0.2,0.2)" style="fill:silver;fill-rule:evenodd;stroke:silver;stroke-width:1pt"/></marker><marker id="DiamondS-4fr" orient="auto" refX="0" refY="0" style="overflow:visible"><path id="path11511" d="M 0,-7.0710768 -7.0710894,0 0,7.0710589 7.0710462,0 0,-7.0710768 z" transform="scale(0.2,0.2)" style="fill:#b0b0b0;fill-rule:evenodd;stroke:#b0b0b0;stroke-width:1pt"/></marker><marker id="DiamondSOI" orient="auto" refX="0" refY="0" style="overflow:visible"><path id="path11514" d="M 0,-7.0710768 -7.0710894,0 0,7.0710589 7.0710462,0 0,-7.0710768 z" transform="scale(0.2,0.2)" style="fill:#b0b0b0;fill-rule:evenodd;stroke:#b0b0b0;stroke-width:1pt"/></marker><marker id="DiamondSPd" orient="auto" refX="0" refY="0" style="overflow:visible"><path id="path11517" d="M 0,-7.0710768 -7.0710894,0 0,7.0710589 7.0710462,0 0,-7.0710768 z" transform="scale(0.2,0.2)" style="fill:#b0b0b0;fill-rule:evenodd;stroke:#b0b0b0;stroke-width:1pt"/></marker><marker id="TriangleOutMe9" orient="auto" refX="0" refY="0" style="overflow:visible"><path id="path11883" d="m 5.77,0 -8.65,5 0,-10 8.65,5 z" transform="scale(0.4,0.4)" style="fill:#000;fill-rule:evenodd;stroke:#000;stroke-width:1pt"/></marker><marker id="TriangleOutMW-2" orient="auto" refX="0" refY="0" style="overflow:visible"><path id="path9001-1" d="m 5.77,0 -8.65,5 0,-10 8.65,5 z" transform="scale(0.4,0.4)" style="fill:#0a0;fill-rule:evenodd;stroke:#0a0;stroke-width:1pt"/></marker><marker id="DotMc-3" orient="auto" refX="0" refY="0" style="overflow:visible"><path id="path10345-9" d="m -2.5,-1 c 0,2.76 -2.24,5 -5,5 -2.76,0 -5,-2.24 -5,-5 0,-2.76 2.24,-5 5,-5 2.76,0 5,2.24 5,5 z" transform="matrix(0.4,0,0,0.4,2.96,0.4)" style="fill:#c00;fill-rule:evenodd;stroke:#c00;stroke-width:1pt"/></marker><marker id="TriangleOutM-03" orient="auto" refX="0" refY="0" style="overflow:visible"><path id="path4034-0" d="m 5.77,0 -8.65,5 0,-10 8.65,5 z" transform="scale(0.4,0.4)" style="fill-rule:evenodd;stroke:#000;stroke-width:1pt"/></marker><marker id="DiamondSPd-4" orient="auto" refX="0" refY="0" style="overflow:visible"><path id="path11517-1" d="M 0,-7.0710768 -7.0710894,0 0,7.0710589 7.0710462,0 0,-7.0710768 z" transform="scale(0.2,0.2)" style="fill:#b0b0b0;fill-rule:evenodd;stroke:#b0b0b0;stroke-width:1pt"/></marker><marker id="TriangleOutM-9" orient="auto" refX="0" refY="0" style="overflow:visible"><path id="path4034-2" d="m 5.77,0 -8.65,5 0,-10 8.65,5 z" transform="scale(0.4,0.4)" style="fill-rule:evenodd;stroke:#000;stroke-width:1pt"/></marker></defs><metadata id="metadata7"/><g id="layer1" transform="translate(-39,917.63782)" style="display:inline"><rect id="rect2987" width="280" height="320" x="240" y="-897.638" rx=".5" ry=".5" style="fill:#b3b3b3;fill-opacity:1;fill-rule:nonzero;stroke:none"/><rect id="rect2991" width="240" height="40" x="260" y="-877.638" rx=".5" ry=".5" style="fill:#fff;fill-opacity:1;fill-rule:nonzero;stroke:none"/><rect id="rect3761" width="120" height="80" x="260" y="-797.638" rx=".5" ry=".5" style="fill:#ccc;fill-opacity:1;fill-rule:nonzero;stroke:none"/><rect id="rect3763" width="100" height="80" x="400" y="-797.638" rx=".5" ry=".5" style="fill:#ccc;fill-opacity:1;fill-rule:nonzero;stroke:none"/><rect id="rect3765" width="160" height="100" x="340" y="-697.638" rx=".5" ry=".5" style="fill:#ccc;fill-opacity:1;fill-rule:nonzero;stroke:none"/><rect id="rect3767" width="60" height="100" x="260" y="-697.638" rx=".5" ry=".5" style="fill:#ccc;fill-opacity:1;fill-rule:nonzero;stroke:#a0a0a0;stroke-opacity:1"/><rect id="rect3783" width="280" height="120" x="240" y="-497.638" rx=".5" ry=".5" style="fill:#fea;fill-opacity:1;fill-rule:nonzero;stroke:none"/><rect id="rect3783-4" width="280" height="120" x="240" y="102.362" rx=".5" ry=".5" style="fill:#fea;fill-opacity:1;fill-rule:nonzero;stroke:none"/><path id="path4799" d="m 280,-857.63782 -180,0 0,1399.99999" style="fill:none;stroke:#b0b0b0;stroke-width:4;stroke-linecap:butt;stroke-linejoin:miter;stroke-miterlimit:4;stroke-opacity:1;stroke-dasharray:none"/><path id="path4987" d="m 710,-507.63782 c 0,346.66667 0,823.33332 0,1169.99999 l -280,0" style="fill:none;stroke:#0a0;stroke-width:4;stroke-linecap:butt;stroke-linejoin:miter;stroke-miterlimit:4;stroke-opacity:1;stroke-dasharray:none;marker-start:url(#DotM7);marker-end:url(#TriangleOutM-2n)"/><text id="text5171" x="380" y="-447.638" xml:space="preserve" style="font-size:24px;font-style:normal;font-weight:400;text-align:center;line-height:125%;letter-spacing:0;word-spacing:0;text-anchor:middle;fill:#000;fill-opacity:1;stroke:none;font-family:Sans"><tspan id="tspan5175" x="380" y="-447.638">context</tspan><tspan id="tspan7956" x="380" y="-417.638">whitelisted?</tspan></text><text id="text5171-7" x="390" y="152.362" xml:space="preserve" style="font-size:24px;font-style:normal;font-weight:400;text-align:center;line-height:125%;letter-spacing:0;word-spacing:0;text-anchor:middle;fill:#000;fill-opacity:1;stroke:none;font-family:Sans"><tspan id="tspan5384" x="390" y="152.362">local dynamic</tspan><tspan id="tspan5388" x="390" y="182.362">filtering rule?</tspan></text><path id="path5390" d="m 519.99999,142.36217 180,0" style="opacity:.95999995;fill:none;stroke:#0a0;stroke-width:4;stroke-linecap:butt;stroke-linejoin:miter;stroke-miterlimit:4;stroke-opacity:1;stroke-dasharray:none;marker-end:url(#TriangleOutMW)"/><text id="text5574" x="550" y="132.362" xml:space="preserve" style="font-size:16px;font-style:normal;font-weight:400;text-align:center;line-height:125%;letter-spacing:0;word-spacing:0;text-anchor:middle;fill:#000;fill-opacity:1;stroke:none;font-family:Sans"><tspan id="tspan5576" x="550" y="132.362">allow</tspan></text><path id="path5578" d="m 420,-607.63782 0,100" style="fill:none;stroke:#000;stroke-width:4;stroke-linecap:butt;stroke-linejoin:miter;stroke-miterlimit:4;stroke-opacity:1;stroke-dasharray:none;marker-end:url(#TriangleOutM)"/><text id="text5946" x="440.898" y="-357.864" xml:space="preserve" style="font-size:16px;font-style:normal;font-weight:400;text-align:center;line-height:125%;letter-spacing:0;word-spacing:0;text-anchor:middle;fill:#000;fill-opacity:1;stroke:none;font-family:Sans"><tspan id="tspan5948" x="440.898" y="-357.864">no</tspan></text><text id="text5946-2" x="548.484" y="201.323" xml:space="preserve" style="font-size:16px;font-style:normal;font-weight:400;text-align:center;line-height:125%;letter-spacing:0;word-spacing:0;text-anchor:middle;fill:#000;fill-opacity:1;stroke:none;font-family:Sans"><tspan id="tspan5948-1" x="548.484" y="201.323">noop</tspan></text><path id="path5390-8" d="m 610,-507.63782 c 0,173.33333 0,796.66666 0,969.99999 l -180,0" style="fill:none;stroke:#000;stroke-width:4;stroke-linecap:butt;stroke-linejoin:miter;stroke-miterlimit:4;stroke-opacity:1;stroke-dasharray:none;marker-start:url(#DotM);marker-end:url(#TriangleOutM)"/><text id="text5946-8" x="440" y="242.362" xml:space="preserve" style="font-size:16px;font-style:normal;font-weight:400;text-align:center;line-height:125%;letter-spacing:0;word-spacing:0;text-anchor:middle;fill:#000;fill-opacity:1;stroke:none;font-family:Sans"><tspan id="tspan5948-6" x="440" y="242.362">no</tspan></text><rect id="rect3783-4-3" width="280" height="120" x="240" y="302.362" rx=".5" ry=".5" style="fill:#fea;fill-opacity:1;fill-rule:nonzero;stroke:none"/><path id="path5762-6" d="M 419.99999,222.36217 420,292.36218" style="fill:none;stroke:#000;stroke-width:4;stroke-linecap:butt;stroke-linejoin:miter;stroke-miterlimit:4;stroke-opacity:1;stroke-dasharray:none;marker-start:none;marker-end:url(#TriangleOutM)"/><text id="text5171-7-9" x="390" y="352.362" xml:space="preserve" style="font-size:24px;font-style:normal;font-weight:400;text-align:center;line-height:125%;letter-spacing:0;word-spacing:0;text-anchor:middle;fill:#000;fill-opacity:1;stroke:none;font-family:Sans"><tspan id="tspan5384-4" x="390" y="352.362">global dynamic</tspan><tspan id="tspan5388-3" x="390" y="382.362">filtering rule?</tspan></text><path id="path5390-1" d="m 519.89843,342.13559 180.10156,0.22658" style="fill:none;stroke:#0a0;stroke-width:4;stroke-linecap:butt;stroke-linejoin:miter;stroke-miterlimit:4;stroke-opacity:1;stroke-dasharray:none;marker-end:url(#TriangleOutM9)"/><text id="text5574-8" x="550" y="332.362" xml:space="preserve" style="font-size:16px;font-style:normal;font-weight:400;text-align:center;line-height:125%;letter-spacing:0;word-spacing:0;text-anchor:middle;fill:#000;fill-opacity:1;stroke:none;font-family:Sans"><tspan id="tspan5576-4" x="550" y="332.362">allow</tspan></text><text id="text5946-2-9" x="548.484" y="401.323" xml:space="preserve" style="font-size:16px;font-style:normal;font-weight:400;text-align:center;line-height:125%;letter-spacing:0;word-spacing:0;text-anchor:middle;fill:#000;fill-opacity:1;stroke:none;font-family:Sans"><tspan id="tspan5948-1-9" x="548.484" y="401.323">noop</tspan></text><path id="path5390-8-2" d="M 519.99999,382.36216 600,382.36218" style="fill:none;stroke:#000;stroke-width:4;stroke-linecap:butt;stroke-linejoin:miter;stroke-miterlimit:4;stroke-opacity:1;stroke-dasharray:none;marker-end:url(#TriangleOutM-6)"/><text id="text5946-8-3" x="440" y="442.362" xml:space="preserve" style="font-size:16px;font-style:normal;font-weight:400;text-align:center;line-height:125%;letter-spacing:0;word-spacing:0;text-anchor:middle;fill:#000;fill-opacity:1;stroke:none;font-family:Sans"><tspan id="tspan6526" x="440" y="442.362">no</tspan></text><rect id="rect3783-4-31" width="280" height="120" x="240" y="502.362" rx=".5" ry=".5" style="fill:#fea;fill-opacity:1;fill-rule:nonzero;stroke:none"/><path id="path5762-6-3" d="M 419.99999,422.36216 420,492.36218" style="fill:none;stroke:#000;stroke-width:4;stroke-linecap:butt;stroke-linejoin:miter;stroke-miterlimit:4;stroke-opacity:1;stroke-dasharray:none;marker-end:url(#TriangleOutM)"/><text id="text5171-7-1" x="380" y="562.362" xml:space="preserve" style="font-size:24px;font-style:normal;font-weight:400;text-align:center;line-height:125%;letter-spacing:0;word-spacing:0;text-anchor:middle;fill:#000;fill-opacity:1;stroke:none;font-family:Sans"><tspan id="tspan5388-5" x="380" y="562.362">static filtering?</tspan></text><path id="path8567" d="m 99.999995,142.36217 139.999995,0" style="fill:none;stroke:#b0b0b0;stroke-width:4;stroke-linecap:butt;stroke-linejoin:miter;stroke-miterlimit:4;stroke-opacity:1;stroke-dasharray:none;marker-end:url(#DiamondSPd)"/><path id="path8761" d="m 100,490 140,0" transform="translate(0,-947.63782)" style="fill:none;stroke:#b0b0b0;stroke-width:4;stroke-linecap:butt;stroke-linejoin:miter;stroke-miterlimit:4;stroke-opacity:1;stroke-dasharray:none;marker-end:url(#DiamondS-4fr)"/><rect id="rect3783-7" width="280" height="120" x="240" y="-97.638" rx=".5" ry=".5" style="fill:#fea;fill-opacity:1;fill-rule:nonzero;stroke:none"/><text id="text5171-8" x="380" y="-47.638" xml:space="preserve" style="font-size:24px;font-style:normal;font-weight:400;text-align:center;line-height:125%;letter-spacing:0;word-spacing:0;text-anchor:middle;fill:#000;fill-opacity:1;stroke:none;font-family:Sans"><tspan id="tspan5175-2" x="380" y="-47.638" style="font-style:italic;-inkscape-font-specification:Sans Italic">advanced user</tspan><tspan id="tspan5410" x="380" y="-17.638">mode?</tspan></text><text id="text5946-9" x="440" y="42.362" xml:space="preserve" style="font-size:16px;font-style:normal;font-weight:400;text-align:center;line-height:125%;letter-spacing:0;word-spacing:0;text-anchor:middle;fill:#000;fill-opacity:1;stroke:none;font-family:Sans"><tspan id="tspan5948-62" x="440" y="42.362">yes</tspan></text><path id="path5762-0" d="m 420,22.36218 0,70" style="fill:none;stroke:#000;stroke-width:4;stroke-linecap:butt;stroke-linejoin:miter;stroke-miterlimit:4;stroke-opacity:1;stroke-dasharray:none;marker-end:url(#TriangleOutM)"/><path id="path5390-5" d="m 520,182.36218 80,0" style="opacity:.95999995;fill:none;stroke:#000;stroke-width:4;stroke-linecap:butt;stroke-linejoin:miter;stroke-miterlimit:4;stroke-opacity:1;stroke-dasharray:none;marker-end:url(#TriangleOutM)"/><text id="text5946-7" x="538.516" y="1.323" xml:space="preserve" style="font-size:16px;font-style:normal;font-weight:400;text-align:center;line-height:125%;letter-spacing:0;word-spacing:0;text-anchor:middle;fill:#000;fill-opacity:1;stroke:none;font-family:Sans"><tspan id="tspan5948-9" x="538.516" y="1.323">no</tspan></text><path id="path5695" d="m 520,-17.63782 80,0" style="fill:none;stroke:#000;stroke-width:4;stroke-linecap:butt;stroke-linejoin:miter;stroke-miterlimit:4;stroke-opacity:1;stroke-dasharray:none;marker-end:url(#TriangleOutM-6)"/><path id="path8567-7" d="m 100,542.36218 140,0" style="fill:none;stroke:#b0b0b0;stroke-width:4;stroke-linecap:butt;stroke-linejoin:miter;stroke-miterlimit:4;stroke-opacity:1;stroke-dasharray:none;marker-end:url(#DiamondSOI)"/><path id="path6779" d="m 520,490 180,0" transform="translate(0,-947.63782)" style="fill:none;stroke:#0a0;stroke-width:4;stroke-linecap:butt;stroke-linejoin:miter;stroke-miterlimit:4;stroke-opacity:1;stroke-dasharray:none;marker-end:url(#TriangleOutM-6b)"/><path id="path5762-6-3-1" d="m 420,622.36218 0,150" style="fill:none;stroke:#000;stroke-width:4;stroke-linecap:butt;stroke-linejoin:miter;stroke-miterlimit:4;stroke-opacity:1;stroke-dasharray:none;marker-end:url(#TriangleOutMe9)"/><text id="text5946-8-3-5" x="460" y="642.362" xml:space="preserve" style="font-size:16px;font-style:normal;font-weight:400;text-align:center;line-height:125%;letter-spacing:0;word-spacing:0;text-anchor:middle;fill:#000;fill-opacity:1;stroke:none;font-family:Sans"><tspan id="tspan6526-8" x="460" y="642.362">no filter</tspan></text><text id="text5171-77" x="180" y="-867.638" xml:space="preserve" style="font-size:24px;font-style:normal;font-weight:400;text-align:center;line-height:125%;letter-spacing:0;word-spacing:0;text-anchor:middle;fill:#000;fill-opacity:1;stroke:none;display:inline;font-family:Sans"><tspan id="tspan5175-3" x="180" y="-867.638">context</tspan></text><text id="text5171-77-8" x="419.316" y="-657.978" xml:space="preserve" style="font-size:24px;font-style:normal;font-weight:400;text-align:center;line-height:125%;letter-spacing:0;word-spacing:0;text-anchor:middle;fill:#666;fill-opacity:1;stroke:none;display:inline;font-family:Sans"><tspan id="tspan5175-3-6" x="419.316" y="-657.978">URL of</tspan><tspan id="tspan7988" x="419.316" y="-627.978">resource</tspan></text><text id="text5171-77-6" x="380" y="-847.638" xml:space="preserve" style="font-size:24px;font-style:normal;font-weight:400;text-align:center;line-height:125%;letter-spacing:0;word-spacing:0;text-anchor:middle;fill:#666;fill-opacity:1;stroke:none;display:inline;font-family:Sans"><tspan id="tspan5175-3-2" x="380" y="-847.638">URL of page</tspan></text><path id="path5762-6-9" d="m 340,222.36218 0,40" style="fill:none;stroke:#c00;stroke-width:4;stroke-linecap:butt;stroke-linejoin:miter;stroke-miterlimit:4;stroke-opacity:1;stroke-dasharray:none;marker-start:none;marker-end:url(#DotMc);display:inline"/><text id="text5946-8-7" x="310" y="242.362" xml:space="preserve" style="font-size:16px;font-style:normal;font-weight:400;text-align:center;line-height:125%;letter-spacing:0;word-spacing:0;text-anchor:middle;fill:#000;fill-opacity:1;stroke:none;display:inline;font-family:Sans"><tspan id="tspan5948-6-0" x="310" y="242.362">block</tspan></text><path id="path5762-6-9-0" d="m 340,422.36218 0,40" style="fill:none;stroke:#c00;stroke-width:4;stroke-linecap:butt;stroke-linejoin:miter;stroke-miterlimit:4;stroke-opacity:1;stroke-dasharray:none;marker-start:none;marker-end:url(#DotMA);display:inline"/><text id="text5946-8-7-3" x="310" y="442.362" xml:space="preserve" style="font-size:16px;font-style:normal;font-weight:400;text-align:center;line-height:125%;letter-spacing:0;word-spacing:0;text-anchor:middle;fill:#000;fill-opacity:1;stroke:none;display:inline;font-family:Sans"><tspan id="tspan5948-6-0-3" x="310" y="442.362">block</tspan></text><path id="path5390-1-2" d="m 520,542.36218 180,0" style="fill:none;stroke:#0a0;stroke-width:4;stroke-linecap:butt;stroke-linejoin:miter;stroke-miterlimit:4;stroke-opacity:1;stroke-dasharray:none;marker-end:url(#TriangleOutMx);display:inline"/><text id="text5946-2-9-9" x="590" y="532.362" xml:space="preserve" style="font-size:16px;font-style:normal;font-weight:400;text-align:center;line-height:125%;letter-spacing:0;word-spacing:0;text-anchor:middle;fill:#000;fill-opacity:1;stroke:none;display:inline;font-family:Sans"><tspan id="tspan5948-1-9-5" x="590" y="532.362">exception filter</tspan></text><path id="path5762-6-9-0-9" d="m 340,622.36218 0,40" style="fill:none;stroke:#c00;stroke-width:4;stroke-linecap:butt;stroke-linejoin:miter;stroke-miterlimit:4;stroke-opacity:1;stroke-dasharray:none;marker-start:none;marker-end:url(#DotMf);display:inline"/><text id="text5946-8-7-3-2" x="290" y="642.362" xml:space="preserve" style="font-size:16px;font-style:normal;font-weight:400;text-align:center;line-height:125%;letter-spacing:0;word-spacing:0;text-anchor:middle;fill:#000;fill-opacity:1;stroke:none;display:inline;font-family:Sans"><tspan id="tspan5948-6-0-3-0" x="290" y="642.362">block filter</tspan></text><text id="text5946-8-7-3-2-4" x="420" y="802.362" xml:space="preserve" style="font-size:24px;font-style:normal;font-weight:400;text-align:center;line-height:125%;letter-spacing:0;word-spacing:0;text-anchor:middle;fill:#000;fill-opacity:1;stroke:none;display:inline;font-family:Sans"><tspan id="tspan5948-6-0-3-0-2" x="420" y="802.362">remote server</tspan></text><text id="text5946-9-7" x="540" y="-467.638" xml:space="preserve" style="font-size:16px;font-style:normal;font-weight:400;text-align:center;line-height:125%;letter-spacing:0;word-spacing:0;text-anchor:middle;fill:#000;fill-opacity:1;stroke:none;display:inline;font-family:Sans"><tspan id="tspan5948-62-1" x="540" y="-467.638">yes</tspan></text><path id="path12147" d="m 750,702.36218 -690,0" style="fill:#ccc;stroke:gray;stroke-width:2;stroke-linecap:butt;stroke-linejoin:miter;stroke-miterlimit:4;stroke-opacity:1;stroke-dasharray:8,8;stroke-dashoffset:0"/><path id="path12147-5" d="m 750,-537.63782 -690,0" style="fill:#ccc;stroke:gray;stroke-width:2;stroke-linecap:butt;stroke-linejoin:miter;stroke-miterlimit:4;stroke-opacity:1;stroke-dasharray:8,8;stroke-dashoffset:0;display:inline"/><text id="text5171-77-67" x="620" y="-867.638" xml:space="preserve" style="font-size:24px;font-style:normal;font-weight:400;text-align:center;line-height:125%;letter-spacing:0;word-spacing:0;text-anchor:middle;fill:#000;fill-opacity:1;stroke:none;display:inline;font-family:Sans"><tspan id="tspan5175-3-1" x="620" y="-867.638">your browser</tspan></text><rect id="rect3783-7-4" width="280" height="120" x="240" y="-297.638" rx=".5" ry=".5" style="fill:#fea;fill-opacity:1;fill-rule:nonzero;stroke:none;display:inline"/><path id="path5762" d="m 420,-377.63782 0,70" style="fill:none;stroke:#000;stroke-width:4;stroke-linecap:butt;stroke-linejoin:miter;stroke-miterlimit:4;stroke-opacity:1;stroke-dasharray:none;marker-end:url(#TriangleOutM)"/><text id="text5171-8-9" x="380" y="-247.638" xml:space="preserve" style="font-size:24px;font-style:normal;font-weight:400;text-align:center;line-height:125%;letter-spacing:0;word-spacing:0;text-anchor:middle;fill:#000;fill-opacity:1;stroke:none;display:inline;font-family:Sans"><tspan id="tspan5410-4" x="380" y="-247.638">url filtering rule?</tspan></text><path id="path5390-2" d="m 520,-257.63783 180,0" style="opacity:.95999995;fill:none;stroke:#0a0;stroke-width:4;stroke-linecap:butt;stroke-linejoin:miter;stroke-miterlimit:4;stroke-opacity:1;stroke-dasharray:none;marker-end:url(#TriangleOutMW);display:inline"/><text id="text5574-7" x="550" y="-267.638" xml:space="preserve" style="font-size:16px;font-style:normal;font-weight:400;text-align:center;line-height:125%;letter-spacing:0;word-spacing:0;text-anchor:middle;fill:#000;fill-opacity:1;stroke:none;display:inline;font-family:Sans"><tspan id="tspan5576-8" x="550" y="-267.638">allow</tspan></text><path id="path5762-6-9-9" d="m 340,-177.63783 0,40" style="fill:none;stroke:#c00;stroke-width:4;stroke-linecap:butt;stroke-linejoin:miter;stroke-miterlimit:4;stroke-opacity:1;stroke-dasharray:none;marker-start:none;marker-end:url(#DotMc);display:inline"/><text id="text5946-8-7-7" x="310" y="-157.638" xml:space="preserve" style="font-size:16px;font-style:normal;font-weight:400;text-align:center;line-height:125%;letter-spacing:0;word-spacing:0;text-anchor:middle;fill:#000;fill-opacity:1;stroke:none;display:inline;font-family:Sans"><tspan id="tspan5948-6-0-4" x="310" y="-157.638">block</tspan></text><text id="text5946-5" x="440.898" y="-157.864" xml:space="preserve" style="font-size:16px;font-style:normal;font-weight:400;text-align:center;line-height:125%;letter-spacing:0;word-spacing:0;text-anchor:middle;fill:#000;fill-opacity:1;stroke:none;display:inline;font-family:Sans"><tspan id="tspan5948-8" x="440.898" y="-157.864">no</tspan></text><path id="path5762-3" d="m 420,-177.63783 0,70" style="fill:none;stroke:#000;stroke-width:4;stroke-linecap:butt;stroke-linejoin:miter;stroke-miterlimit:4;stroke-opacity:1;stroke-dasharray:none;marker-end:url(#TriangleOutM);display:inline"/><path id="path8567-2" d="m 100,-257.63782 140,0" style="fill:none;stroke:#b0b0b0;stroke-width:4;stroke-linecap:butt;stroke-linejoin:miter;stroke-miterlimit:4;stroke-opacity:1;stroke-dasharray:none;marker-end:url(#DiamondSPd);display:inline"/><text id="text5946-2-8" x="548.484" y="-198.677" xml:space="preserve" style="font-size:16px;font-style:normal;font-weight:400;text-align:center;line-height:125%;letter-spacing:0;word-spacing:0;text-anchor:middle;fill:#000;fill-opacity:1;stroke:none;display:inline;font-family:Sans"><tspan id="tspan5948-1-5" x="548.484" y="-198.677">noop</tspan></text><path id="path5390-5-3" d="m 520,-217.63783 80,0" style="opacity:.95999995;fill:none;stroke:#000;stroke-width:4;stroke-linecap:butt;stroke-linejoin:miter;stroke-miterlimit:4;stroke-opacity:1;stroke-dasharray:none;marker-end:url(#TriangleOutM);display:inline"/></g></svg>