<svg xmlns="http://www.w3.org/2000/svg" xmlns:svg="http://www.w3.org/2000/svg" xmlns:xlink="http://www.w3.org/1999/xlink" id="svg2" width="128" height="128" version="1.1"><defs id="defs4"><linearGradient id="linearGradient6915"><stop id="stop6917" offset="0" style="stop-color:#600000;stop-opacity:1"/><stop id="stop6919" offset="1" style="stop-color:#700000;stop-opacity:1"/></linearGradient><linearGradient id="linearGradient6898"><stop style="stop-color:#90000f;stop-opacity:.94117647" id="stop6900" offset="0"/><stop style="stop-color:maroon;stop-opacity:1" id="stop6902" offset="1"/></linearGradient><linearGradient id="linearGradient3770"><stop style="stop-color:#000;stop-opacity:1" id="stop3772" offset="0"/><stop style="stop-color:#000;stop-opacity:0" id="stop3774" offset="1"/></linearGradient><radialGradient id="radialGradient3776" cx="82.145" cy="81.055" r="22.573" fx="82.145" fy="81.055" gradientTransform="matrix(1,0,0,1.2584318,0,-20.947238)" gradientUnits="userSpaceOnUse" xlink:href="#linearGradient3770"/></defs><metadata id="metadata7"/><g id="layer3" style="display:inline;opacity:1"><g style="fill:maroon;fill-opacity:1;stroke:#fff;stroke-width:1.60191178000000001;stroke-linecap:round;stroke-miterlimit:4;stroke-opacity:1;stroke-dasharray:none;display:inline;stroke-linejoin:round" id="g6907" transform="matrix(-0.6945203,0,0,0.56109687,375.02964,-247.42947)"><path style="fill:maroon;fill-opacity:1;fill-rule:nonzero;stroke:#fff;stroke-width:1.60191178;stroke-linecap:round;stroke-linejoin:round;stroke-miterlimit:4;stroke-opacity:1;stroke-dasharray:none" id="path6909" d="m 447.83376,669.09921 c -80.63119,-57.03115 -80.63119,-57.03115 -80.63119,-199.60903 34.55623,0 46.07497,0 80.63119,-28.51558 m 0,228.12461 c 80.6312,-57.03115 80.6312,-57.03115 80.6312,-199.60903 -34.55623,0 -46.07497,0 -80.6312,-28.51558"/></g></g><g id="layer5" transform="translate(-17.872548,-17.32535)" style="display:inline"><ellipse style="font-size:100.21945953px;font-style:normal;font-variant:normal;font-weight:400;font-stretch:normal;text-align:center;line-height:125%;letter-spacing:0;word-spacing:0;text-anchor:middle;fill:none;stroke:#fff;stroke-width:5.99999952;stroke-miterlimit:4;stroke-opacity:1;stroke-dasharray:none;display:inline;font-family:Ubuntu;-inkscape-font-specification:Ubuntu" id="path2996-3" cx="102.123" cy="81.325" d="m 114.12254,81.325356 c 0,6.627417 -5.37258,12 -12,12 -6.627413,0 -11.999996,-5.372583 -11.999996,-12 0,-6.627417 5.372583,-12 11.999996,-12 6.62742,0 12,5.372583 12,12 z" rx="12" ry="12" transform="matrix(1.3333335,0,0,1.3333334,-42.290862,-31.108461)"/><g style="font-size:73.20139312999999959px;font-style:normal;font-weight:400;line-height:125%;letter-spacing:0;word-spacing:0;fill:#fff;fill-opacity:1;stroke:#fff;stroke-width:1.99999996999999996;stroke-miterlimit:4;stroke-opacity:1;font-family:Sans;stroke-dasharray:none" id="text3778" transform="scale(1.0018026,0.99820067)"><path style="font-variant:normal;font-stretch:normal;fill:#fff;stroke:#fff;stroke-width:0;stroke-linecap:square;stroke-linejoin:miter;stroke-miterlimit:4;stroke-dasharray:none;font-family:Ubuntu;-inkscape-font-specification:Ubuntu" id="path3783" d="m 81.72523,81.471945 c 0,11.019828 -4.991003,16.028841 -15.97121,16.028841 -10.980207,0 -15.97121,-5.009013 -15.97121,-16.028841 l 0,-24.043262 7.985605,0 0,24.043262 c 0,7.012618 0.9982,8.014421 7.985605,8.014421 6.987404,0 7.985605,-1.001803 7.985605,-8.014421 l 0,-24.043262 7.985605,0 z"/></g></g></svg>